<mxfile host="Electron" modified="2023-10-17T02:21:06.640Z" agent="Mozilla/5.0 (Windows NT 10.0; Win64; x64) AppleWebKit/537.36 (KHTML, like Gecko) draw.io/22.0.2 Chrome/114.0.5735.289 Electron/25.8.4 Safari/537.36" etag="8PEHtmptx7qHX3hL6zwv" version="22.0.2" type="device">
  <diagram name="페이지-1" id="pQUbMWMwW5j2ZO4WkN-G">
    <mxGraphModel dx="1221" dy="823" grid="1" gridSize="10" guides="1" tooltips="1" connect="1" arrows="1" fold="1" page="1" pageScale="1" pageWidth="827" pageHeight="1169" math="0" shadow="0">
      <root>
        <mxCell id="0" />
        <mxCell id="1" parent="0" />
        <mxCell id="e_ZPCl0OG1XlrLMJQ8XP-1" value="" style="rounded=0;whiteSpace=wrap;html=1;" vertex="1" parent="1">
          <mxGeometry x="200" y="150" width="390" height="110" as="geometry" />
        </mxCell>
        <mxCell id="e_ZPCl0OG1XlrLMJQ8XP-2" value="&lt;font style=&quot;font-size: 18px;&quot;&gt;&lt;b&gt;데이터 영역 메모리&lt;/b&gt;&lt;/font&gt;" style="text;html=1;strokeColor=none;fillColor=none;align=center;verticalAlign=middle;whiteSpace=wrap;rounded=0;" vertex="1" parent="1">
          <mxGeometry x="200" y="100" width="190" height="50" as="geometry" />
        </mxCell>
        <mxCell id="e_ZPCl0OG1XlrLMJQ8XP-3" value="static 변수" style="rounded=0;whiteSpace=wrap;html=1;fillColor=#dae8fc;strokeColor=#6c8ebf;" vertex="1" parent="1">
          <mxGeometry x="295" y="185" width="200" height="40" as="geometry" />
        </mxCell>
        <mxCell id="e_ZPCl0OG1XlrLMJQ8XP-4" value="인스턴스&lt;br&gt;A" style="ellipse;whiteSpace=wrap;html=1;aspect=fixed;" vertex="1" parent="1">
          <mxGeometry x="240" y="280" width="80" height="80" as="geometry" />
        </mxCell>
        <mxCell id="e_ZPCl0OG1XlrLMJQ8XP-5" value="인스턴스&lt;br&gt;B" style="ellipse;whiteSpace=wrap;html=1;aspect=fixed;" vertex="1" parent="1">
          <mxGeometry x="360" y="280" width="80" height="80" as="geometry" />
        </mxCell>
        <mxCell id="e_ZPCl0OG1XlrLMJQ8XP-6" value="인스턴스&lt;br&gt;C" style="ellipse;whiteSpace=wrap;html=1;aspect=fixed;" vertex="1" parent="1">
          <mxGeometry x="480" y="280" width="80" height="80" as="geometry" />
        </mxCell>
        <mxCell id="e_ZPCl0OG1XlrLMJQ8XP-7" value="" style="endArrow=classic;html=1;rounded=0;entryX=0.25;entryY=1;entryDx=0;entryDy=0;" edge="1" parent="1" target="e_ZPCl0OG1XlrLMJQ8XP-3">
          <mxGeometry width="50" height="50" relative="1" as="geometry">
            <mxPoint x="280" y="280" as="sourcePoint" />
            <mxPoint x="330" y="230" as="targetPoint" />
          </mxGeometry>
        </mxCell>
        <mxCell id="e_ZPCl0OG1XlrLMJQ8XP-8" value="" style="endArrow=classic;html=1;rounded=0;" edge="1" parent="1" target="e_ZPCl0OG1XlrLMJQ8XP-3">
          <mxGeometry width="50" height="50" relative="1" as="geometry">
            <mxPoint x="400" y="280" as="sourcePoint" />
            <mxPoint x="420" y="270" as="targetPoint" />
          </mxGeometry>
        </mxCell>
        <mxCell id="e_ZPCl0OG1XlrLMJQ8XP-9" value="" style="endArrow=classic;html=1;rounded=0;exitX=0.421;exitY=-0.05;exitDx=0;exitDy=0;exitPerimeter=0;entryX=0.793;entryY=0.992;entryDx=0;entryDy=0;entryPerimeter=0;" edge="1" parent="1" source="e_ZPCl0OG1XlrLMJQ8XP-6" target="e_ZPCl0OG1XlrLMJQ8XP-3">
          <mxGeometry width="50" height="50" relative="1" as="geometry">
            <mxPoint x="495" y="280" as="sourcePoint" />
            <mxPoint x="491" y="225" as="targetPoint" />
          </mxGeometry>
        </mxCell>
        <mxCell id="e_ZPCl0OG1XlrLMJQ8XP-10" value="공유" style="shape=callout;whiteSpace=wrap;html=1;perimeter=calloutPerimeter;base=20;size=30;position=0.33;position2=0;fillColor=#e1d5e7;strokeColor=#9673a6;" vertex="1" parent="1">
          <mxGeometry x="500" y="130" width="100" height="70" as="geometry" />
        </mxCell>
      </root>
    </mxGraphModel>
  </diagram>
</mxfile>
